<?xml version="1.0" encoding="UTF-8"?>
<svg xmlns="http://www.w3.org/2000/svg" xmlns:xlink="http://www.w3.org/1999/xlink" width="40px" height="40px" viewBox="0 0 40 40" version="1.1">
<g id="surface1">
<path style=" stroke:none;fill-rule:nonzero;fill:rgb(60.392157%,28.627451%,57.647059%);fill-opacity:1;" d="M 37.609375 11.824219 C 37.609375 11.164062 37.46875 10.566406 37.175781 10.066406 C 36.890625 9.570312 36.46875 9.15625 35.90625 8.832031 C 31.21875 6.128906 26.519531 3.429688 21.832031 0.726562 C 20.5625 0 19.347656 0.0234375 18.089844 0.757812 C 16.222656 1.855469 6.871094 7.214844 4.09375 8.832031 C 2.945312 9.492188 2.390625 10.511719 2.390625 11.835938 L 2.390625 28.152344 C 2.390625 28.804688 2.53125 29.378906 2.804688 29.878906 C 3.085938 30.386719 3.519531 30.820312 4.09375 31.160156 C 6.882812 32.773438 16.222656 38.125 18.089844 39.230469 C 19.347656 39.96875 20.574219 40 21.832031 39.261719 C 26.519531 36.550781 31.21875 33.859375 35.90625 31.160156 C 36.492188 30.820312 36.914062 30.398438 37.195312 29.878906 C 37.46875 29.378906 37.609375 28.804688 37.609375 28.152344 Z M 37.609375 11.824219 "/>
<path style=" stroke:none;fill-rule:nonzero;fill:rgb(41.568627%,8.235294%,46.666667%);fill-opacity:1;" d="M 20.042969 19.929688 L 2.78125 29.867188 C 3.066406 30.378906 3.5 30.8125 4.074219 31.148438 C 6.863281 32.765625 16.203125 38.113281 18.070312 39.21875 C 19.328125 39.957031 20.554688 39.988281 21.8125 39.25 C 26.5 36.539062 31.195312 33.847656 35.882812 31.148438 C 36.46875 30.8125 36.890625 30.386719 37.175781 29.867188 Z M 20.042969 19.929688 "/>
<path style=" stroke:none;fill-rule:nonzero;fill:rgb(41.568627%,8.235294%,46.666667%);fill-opacity:1;" d="M 14.933594 22.871094 C 15.941406 24.628906 17.832031 25.808594 19.988281 25.808594 C 22.167969 25.808594 24.066406 24.617188 25.066406 22.835938 L 20.042969 19.929688 Z M 14.933594 22.871094 "/>
<path style=" stroke:none;fill-rule:nonzero;fill:rgb(50.588235%,18.823529%,51.764706%);fill-opacity:1;" d="M 37.609375 11.824219 C 37.609375 11.164062 37.46875 10.566406 37.175781 10.066406 L 20.042969 19.929688 L 37.195312 29.867188 C 37.46875 29.367188 37.609375 28.792969 37.609375 28.140625 Z M 37.609375 11.824219 "/>
<path style=" stroke:none;fill-rule:nonzero;fill:rgb(100%,100%,100%);fill-opacity:1;" d="M 25.066406 22.835938 C 24.070312 24.605469 22.167969 25.808594 19.988281 25.808594 C 17.820312 25.808594 15.933594 24.628906 14.933594 22.871094 C 14.445312 22.011719 14.164062 21.035156 14.164062 19.984375 C 14.164062 16.761719 16.765625 14.15625 19.988281 14.15625 C 22.136719 14.15625 24.015625 15.328125 25.023438 17.066406 L 30.109375 14.136719 C 28.082031 10.644531 24.308594 8.289062 19.976562 8.289062 C 13.511719 8.289062 8.28125 13.527344 8.28125 19.984375 C 8.28125 22.097656 8.847656 24.09375 9.835938 25.808594 C 11.851562 29.3125 15.648438 31.679688 19.988281 31.679688 C 24.339844 31.679688 28.136719 29.304688 30.15625 25.777344 Z M 31.5 17.21875 L 30.339844 17.21875 L 30.339844 22.828125 L 31.5 22.828125 Z M 34.070312 17.21875 L 32.910156 17.21875 L 32.910156 22.828125 L 34.070312 22.828125 Z M 34.070312 17.21875 "/>
<path style=" stroke:none;fill-rule:nonzero;fill:rgb(100%,100%,100%);fill-opacity:1;" d="M 35.015625 18.160156 L 29.40625 18.160156 L 29.40625 19.320312 L 35.015625 19.320312 Z M 35.015625 20.722656 L 29.40625 20.722656 L 29.40625 21.882812 L 35.015625 21.882812 Z M 35.015625 20.722656 "/>
</g>
</svg>
